<?xml version="1.0" encoding="iso-8859-1"?>
<!-- Uploaded to: SVG Repo, www.svgrepo.com, Generator: SVG Repo Mixer Tools -->
<svg version="1.1" id="Layer_1" xmlns="http://www.w3.org/2000/svg" xmlns:xlink="http://www.w3.org/1999/xlink" 
	 viewBox="0 0 512.002 512.002" xml:space="preserve">
<polygon style="fill:#88ACB5;" points="306.111,381.28 306.111,435.748 256,457.535 205.889,435.748 205.889,381.28 "/>
<g>
	<rect x="205.889" y="435.746" style="fill:#A7CBCF;" width="100.221" height="50.536"/>
	<path style="fill:#A7CBCF;" d="M492.566,26.268h-32.681v336.471l43.945-21.787V37.532C503.83,31.344,498.764,26.268,492.566,26.268
		z"/>
</g>
<path style="fill:#C7E7EB;" d="M459.885,26.268H19.434c-6.198,0-11.264,5.076-11.264,11.264v303.42l32.681,21.787h430.298V37.532
	C471.149,31.344,466.083,26.268,459.885,26.268z"/>
<path style="fill:#367596;" d="M471.149,340.952l-11.264,66.473h32.681c6.198,0,11.264-5.066,11.264-11.264v-55.209H471.149z"/>
<path style="fill:#5195AF;" d="M8.17,340.952v55.209c0,6.198,5.066,11.264,11.264,11.264h440.451
	c6.198,0,11.264-5.066,11.264-11.264v-55.209H8.17z"/>
<polygon style="fill:#C20035;" points="341.874,119.615 341.874,297.377 320.087,297.377 287.406,208.496 320.087,119.615 "/>
<rect x="170.126" y="119.613" style="fill:#FF0F47;" width="149.962" height="177.762"/>
<path d="M170.126,305.271h171.749c4.513,0,8.17-3.657,8.17-8.17V119.336c0-4.513-3.657-8.17-8.17-8.17h-39.577v-3.467
	c0-25.529-20.769-46.298-46.298-46.298s-46.298,20.769-46.298,46.298v3.467h-39.577c-4.513,0-8.17,3.657-8.17,8.17v177.764
	C161.955,301.613,165.612,305.271,170.126,305.271z M226.043,107.699c0-16.518,13.439-29.957,29.957-29.957
	s29.957,13.439,29.957,29.957v3.467h-59.915V107.699z M178.296,127.507h31.406v13.617c0,4.513,3.657,8.17,8.17,8.17
	s8.17-3.657,8.17-8.17v-13.617h59.915v13.617c0,4.513,3.657,8.17,8.17,8.17c4.513,0,8.17-3.657,8.17-8.17v-13.617h31.406V288.93
	H178.296V127.507z"/>
<path d="M492.565,17.826H19.435C8.718,17.826,0,26.544,0,37.262v358.623c0,10.717,8.718,19.435,19.435,19.435H197.88v62.515h-77.059
	c-4.513,0-8.17,3.657-8.17,8.17c0,4.513,3.657,8.17,8.17,8.17h270.36c4.513,0,8.17-3.657,8.17-8.17c0-4.513-3.657-8.17-8.17-8.17
	h-77.059V415.32h178.445c10.717,0,19.435-8.718,19.435-19.435V37.262C512,26.544,503.282,17.826,492.565,17.826z M297.78,477.835
	h-83.559V415.32h83.559V477.835z M495.66,395.885c0,1.678-1.417,3.095-3.095,3.095H19.435c-1.678,0-3.095-1.417-3.095-3.095V37.262
	c0-1.678,1.417-3.095,3.095-3.095h473.129c1.678,0,3.095,1.417,3.095,3.095V395.885z"/>
<path d="M470.036,332.505H41.964c-4.513,0-8.17,3.657-8.17,8.17c0,4.513,3.657,8.17,8.17,8.17h428.07c4.513,0,8.17-3.657,8.17-8.17
	C478.206,336.162,474.548,332.505,470.036,332.505z"/>
</svg>